<?xml version="1.0" encoding="UTF-8" standalone="no"?>
<!DOCTYPE svg PUBLIC "-//W3C//DTD SVG 1.1//EN" "http://www.w3.org/Graphics/SVG/1.1/DTD/svg11.dtd">
<!-- Created with Vectornator (http://vectornator.io/) -->
<svg height="100%" stroke-miterlimit="10" style="fill-rule:nonzero;clip-rule:evenodd;stroke-linecap:round;stroke-linejoin:round;" version="1.1" viewBox="0 0 2400 644.81" width="100%" xml:space="preserve" xmlns="http://www.w3.org/2000/svg" xmlns:vectornator="http://vectornator.io" xmlns:xlink="http://www.w3.org/1999/xlink">
<defs/>
<clipPath id="ArtboardFrame">
<rect height="644.81" width="2400" x="0" y="0"/>
</clipPath>
<g clip-path="url(#ArtboardFrame)" id="g10" vectornator:layerName="g10">
<path d="M1596.83-0.00160903L1495.77-0.00160903L1495.77 565.217C1587.62 568.377 1679.08 573.01 1770.17 579.083L1770.17 479.503C1712.55 475.66 1654.77 472.402 1596.83 469.704L1596.83-0.00160903ZM2400 0.0555738L2288.98 0.0555738L2215.8 169.671L2150.06 0.0555738L2040.71 0.0555738L2158.22 303.136L2029.94 600.468C2065.43 603.929 2100.82 607.623 2136.17 611.525L2210.78 438.646L2284.66 629.219C2323.14 634.167 2361.52 639.33 2399.83 644.798L2400 644.733L2268.35 305.183L2400 0.0555738ZM1148.85 560.277L1249.92 560.255L1249.92 330.34L1386.92 330.34L1386.92 230.759L1249.92 230.759L1249.92 100.537L1430.99 100.537L1430.99 0.0606045L1148.85 0.0606045L1148.85 560.277ZM771.448 100.531L877.224 100.531L877.224 566.197C910.854 564.927 944.554 563.881 978.288 562.998L978.288 100.531L1084.06 100.531L1084.06 0.0555815L771.448 0.0555815L771.448 100.531ZM425.929 595.14C519.078 586.675 612.656 579.699 706.66 574.285L706.66 474.693C646.599 478.164 586.709 482.275 526.993 486.97L526.993 336.208C566.175 335.818 617.769 334.622 663.477 335.19L663.477 235.602C626.96 235.512 568.271 236.111 526.993 236.639L526.993 100.537L706.66 100.537L706.66 0.060609L425.929 0.060609L425.929 595.14ZM227.68 364.924L96.0503 0.0555475L-2.84217e-13 0.0555475L-2.84217e-13 644.812C33.6235 640.025 67.3109 635.442 101.064 631.046L101.064 280.429L218.105 616.649C254.917 612.381 291.795 608.337 328.745 604.536L328.745 0.0555475L227.68 0.0555475L227.68 364.924ZM1853.48 585.079C1887.22 587.661 1920.91 590.431 1954.56 593.424L1954.56 0.0555686L1853.48 0.0555686L1853.48 585.079" fill="#ed1c24" fill-rule="nonzero" opacity="1" stroke="none"/>
</g>
</svg>
