<?xml version="1.0" encoding="UTF-8" standalone="no"?>
<!DOCTYPE svg PUBLIC "-//W3C//DTD SVG 1.1//EN" "http://www.w3.org/Graphics/SVG/1.1/DTD/svg11.dtd">
<!-- Created with Vectornator (http://vectornator.io/) -->
<svg height="100%" stroke-miterlimit="10" style="fill-rule:nonzero;clip-rule:evenodd;stroke-linecap:round;stroke-linejoin:round;" version="1.1" viewBox="0 0 1320 2400" width="100%" xml:space="preserve" xmlns="http://www.w3.org/2000/svg" xmlns:vectornator="http://vectornator.io" xmlns:xlink="http://www.w3.org/1999/xlink">
<defs/>
<clipPath id="ArtboardFrame">
<rect height="2400" width="1320" x="0" y="0"/>
</clipPath>
<g clip-path="url(#ArtboardFrame)" id="g10" vectornator:layerName="g10">
<g opacity="1">
<g opacity="1">
<clipPath id="ClipPath">
<path d="M74.9789 30.3981C69.0487 28.0228 12.0612 4.91075 3.87853 1.6014C3.65702 1.49465 3.17396 1.30783 2.59483 1.06764C1.65006 0.694 2.0237 0.85413 1.56999 0.667312C0.585196 0.266987 0.259599 0.133545-0.0900182 0.000103844C-0.0953559 17.908-0.103362 44.4361-0.106031 72.8058C-0.1087 109.102-0.106031 147.613-0.106031 166.775C-0.106031 203.685-0.106031 298.669-0.106031 333.764C-0.106031 401.526-0.106031 923.709-0.106031 960.216C-0.106031 995.768-0.106031 2362.34-0.106031 2400C187.147 2377.5 280.794 2368.75 471.282 2360.07C471.282 2323.54 471.282 1961.19 471.282 1908.35C471.282 1603.27 471.282 1388.58 471.282 1270.24C471.282 1220.43 471.282 1201.98 471.282 1150.89C456.857 1110.11 395.82 937.037 380.194 893.445C351.008 810.337 184.887 341.157 171.607 303.606C159.701 269.926 126.541 176.33 116.001 146.359C109.839 129.038 93.7514 83.668 85.2032 59.4617C78.5204 40.5663 79.1236 42.1143 74.9789 30.3981Z"/>
</clipPath>
<g clip-path="url(#ClipPath)">
<clipPath id="ClipPath_2">
<path d="M74.9789 30.3981C69.0487 28.0228 12.0612 4.91075 3.87853 1.6014C3.65702 1.49465 3.17396 1.30783 2.59483 1.06764C1.65006 0.694 2.0237 0.85413 1.56999 0.667312C0.585196 0.266987 0.259599 0.133545-0.0900182 0.000103844C-0.0953559 17.908-0.103362 44.4361-0.106031 72.8058C-0.1087 109.102-0.106031 147.613-0.106031 166.775C-0.106031 203.685-0.106031 298.669-0.106031 333.764C-0.106031 401.526-0.106031 923.709-0.106031 960.216C-0.106031 995.768-0.106031 2362.34-0.106031 2400C187.147 2377.5 280.794 2368.75 471.282 2360.07C471.282 2323.54 471.282 1961.19 471.282 1908.35C471.282 1603.27 471.282 1388.58 471.282 1270.24C471.282 1220.43 471.282 1201.98 471.282 1150.89C456.857 1110.11 395.82 937.037 380.194 893.445C351.008 810.337 184.887 341.157 171.607 303.606C159.701 269.926 126.541 176.33 116.001 146.359C109.839 129.038 93.7514 83.668 85.2032 59.4617C78.5204 40.5663 79.1236 42.1143 74.9789 30.3981"/>
</clipPath>
<g clip-path="url(#ClipPath_2)">
<path d="M74.9636 30.4038C69.0318 28.0166 12.0459 4.92103 3.86216 1.59166C15.4417 25.3138 23.5576 41.8947 34.1339 65.677C43.2453 63.7653 79.0423 58.5202 85.1878 59.4677C78.503 40.5513 79.1075 42.1059 74.9636 30.4038Z" fill="#781619" fill-rule="nonzero" opacity="1" stroke="none"/>
<path d="M3.86162 1.59139C9.65271 13.4525 14.5759 23.5284 19.3739 33.6118C18.3785 33.8039 17.2317 33.868 16.0406 33.86C12.3997 23.3125 8.69354 12.9096 3.65051 1.50573C3.73325 1.54042 3.80797 1.56978 3.86135 1.59113L3.86162 1.59139Z" fill="#781619" fill-rule="nonzero" opacity="1" stroke="none"/>
<path d="M3.65051 1.50539C8.69353 12.9093 12.3997 23.3121 16.0406 33.8596C14.8521 33.8596 13.6141 33.7689 12.4414 33.6675C9.56144 22.5024 6.75703 11.7815 3.3532 1.38502C3.46529 1.43039 3.56404 1.47043 3.65051 1.50512L3.65051 1.50539Z" fill="#781619" fill-rule="nonzero" opacity="1" stroke="none"/>
<path d="M19.3742 33.6122C24.1725 43.6958 28.8453 53.7861 34.1336 65.6771C32.1998 66.0825 30.1277 66.5685 28.0556 67.0766C23.2654 55.0984 19.6843 44.4073 16.0408 33.8598C17.2319 33.8598 18.3787 33.8038 19.3742 33.6116L19.3742 33.6122Z" fill="#781619" fill-rule="nonzero" opacity="1" stroke="none"/>
<path d="M16.0408 33.8598C19.6843 44.4072 23.2653 55.0983 28.0556 67.0766C25.9838 67.586 23.9117 68.1166 21.9701 68.6143C18.2716 56.4431 15.3188 44.8335 12.4416 33.6681C13.6143 33.7695 14.8523 33.8523 16.0408 33.8603L16.0408 33.8598Z" fill="#7f171b" fill-rule="nonzero" opacity="1" stroke="none"/>
<path d="M3.35339 1.3855C3.24397 1.34013 3.1212 1.28942 2.9939 1.23871C3.87462 5.93372 4.8442 11.0291 5.88665 16.4188C6.53064 16.6509 7.30727 16.9504 8.0943 17.2397C6.60883 11.8631 5.05531 6.58412 3.35339 1.38577L3.35339 1.3855Z" fill="#781619" fill-rule="nonzero" opacity="1" stroke="none"/>
<path d="M8.09422 17.2395C7.30718 16.9502 6.53055 16.6518 5.88656 16.4186C6.9266 21.8083 8.03951 27.4926 9.20445 33.3606C10.1532 33.446 11.2661 33.5687 12.4415 33.668C11.0003 28.0856 9.57969 22.6151 8.09422 17.2395Z" fill="#85181c" fill-rule="nonzero" opacity="1" stroke="none"/>
<path d="M2.99373 1.23824C2.86295 1.18487 2.72524 1.12882 2.57926 1.07011C3.0874 5.53586 3.73112 10.5658 4.47146 15.9883C4.73033 16.0177 5.24275 16.1858 5.88647 16.4183C4.84403 11.0286 3.87444 5.93325 2.99373 1.23824Z" fill="#781619" fill-rule="nonzero" opacity="1" stroke="none"/>
<path d="M5.8867 16.4185C5.24298 16.1863 4.72976 16.0185 4.47168 15.9886C5.21442 21.4122 6.05617 27.2268 6.96837 33.2615C7.47652 33.2242 8.25849 33.2882 9.20459 33.3603C8.03964 27.4923 6.92674 21.808 5.8867 16.4183L5.8867 16.4185Z" fill="#8d191d" fill-rule="nonzero" opacity="1" stroke="none"/>
<path d="M12.4415 33.6682C11.2661 33.5668 10.1532 33.4467 9.20447 33.3607C10.3694 39.23 11.5867 45.2856 12.8402 51.4197C14.034 51.2355 15.41 51.0143 16.8982 50.7642C15.3369 44.9443 13.88 39.2509 12.4415 33.6682Z" fill="#8e191e" fill-rule="nonzero" opacity="1" stroke="none"/>
<path d="M16.8982 50.7641C15.4101 51.015 14.034 51.2357 12.8403 51.4196C14.0912 57.5533 15.3789 63.7653 16.6818 69.9474C18.2222 69.5759 20.0309 69.112 21.9701 68.6143C20.1222 62.5286 18.4595 56.5837 16.8982 50.7641Z" fill="#931a1e" fill-rule="nonzero" opacity="1" stroke="none"/>
<path d="M9.20449 33.3607C8.25839 33.2752 7.47642 33.2245 6.96828 33.2619C7.87782 39.2967 8.85781 45.5519 9.87437 51.8538C10.6329 51.7497 11.6441 51.6029 12.8402 51.4198C11.5867 45.2858 10.3694 39.2302 9.20449 33.3609L9.20449 33.3607Z" fill="#9c1b20" fill-rule="nonzero" opacity="1" stroke="none"/>
<path d="M12.8403 51.4196C11.6441 51.6037 10.6329 51.7505 9.87438 51.8535C10.8883 58.1568 11.9411 64.5081 12.9966 70.7344C13.8672 70.601 15.1416 70.3202 16.6818 69.9474C15.3788 63.7653 14.0911 57.5533 12.8403 51.4196Z" fill="#a41c21" fill-rule="nonzero" opacity="1" stroke="none"/>
<path d="M2.57933 1.07014C1.63323 0.694634 2.00846 0.853963 1.55236 0.671415C2.01887 4.77474 2.29777 9.63175 2.49846 15.0239C3.3274 15.1333 3.1163 15.7575 4.47153 15.9884C3.73119 10.5658 3.08747 5.53589 2.57933 1.07014Z" fill="#781619" fill-rule="nonzero" opacity="1" stroke="none"/>
<path d="M4.47149 15.9885C3.11625 15.7563 3.32736 15.1323 2.49842 15.024C2.70125 20.4163 2.82695 26.343 2.98575 32.5851C4.63829 32.5264 4.70608 33.346 6.96818 33.2614C6.05597 27.2267 5.21422 21.4121 4.47149 15.9885Z" fill="#92191e" fill-rule="nonzero" opacity="1" stroke="none"/>
<path d="M6.9683 33.2616C4.7062 33.347 4.63841 32.528 2.98587 32.5853C3.146 38.8272 3.33789 45.3848 3.67417 52.0371C6.15004 51.8129 6.70516 52.256 9.87439 51.853C8.85784 45.551 7.87784 39.2958 6.9683 33.2611L6.9683 33.2616Z" fill="#a21c21" fill-rule="nonzero" opacity="1" stroke="none"/>
<path d="M9.87431 51.8535C6.70507 52.256 6.14995 51.8135 3.67408 52.0377C4.01275 58.6903 4.49501 65.4379 5.23241 72.0603C8.08112 71.7606 9.41553 71.281 12.9966 70.735C11.941 64.5086 10.8882 58.1573 9.87431 51.854L9.87431 51.8535Z" fill="#ad1d23" fill-rule="nonzero" opacity="1" stroke="none"/>
<path d="M1.55245 0.671378C0.570056 0.277725 0.244192 0.13948-0.105158-0.00116762C-0.10756 4.47766-0.105158 9.4948-0.105158 14.9446C0.705366 14.9899 1.10943 14.7524 2.50362 15.0246C2.30346 9.63251 2.02404 4.77551 1.55752 0.672179L1.55245 0.671378Z" fill="#781619" fill-rule="nonzero" opacity="1" stroke="none"/>
<path d="M2.49853 15.0242C1.10434 14.7519 0.700274 14.9895-0.11025 14.9441C-0.11025 20.3936-0.11025 26.276-0.11025 32.4842C1.71176 32.3214 0.692534 32.5776 2.9912 32.5856C2.83374 26.3435 2.70724 20.4168 2.50387 15.0244L2.49853 15.0242Z" fill="#92191e" fill-rule="nonzero" opacity="1" stroke="none"/>
<path d="M2.98591 32.5853C0.687243 32.5853 1.70647 32.3211-0.115542 32.4839C-0.117944 38.6932-0.117944 45.2283-0.115542 51.9853C2.71742 51.6111 0.476138 52.2941 3.67927 52.036C3.343 45.3837 3.15004 38.8261 2.99098 32.5842L2.98591 32.5853Z" fill="#a21c21" fill-rule="nonzero" opacity="1" stroke="none"/>
<path d="M3.67397 52.0373C0.470834 52.2961 2.71212 51.6124-0.120846 51.9865C-0.120846 58.7432-0.120846 65.7201-0.123515 72.813C3.16822 72.3441 1.61736 72.4391 5.2323 72.0599C4.4949 65.4375 4.01264 58.6899 3.67397 52.0373Z" fill="#ad1d23" fill-rule="nonzero" opacity="1" stroke="none"/>
<path d="M85.188 59.4678C79.0425 58.5203 43.2454 63.7654 34.1341 65.6771C47.3034 95.2896 61.5518 130.151 70.056 154.139C76.2538 153.05 109.531 147.489 115.984 146.354C109.822 129.024 93.7341 83.6605 85.188 59.4678Z" fill="#781619" fill-rule="nonzero" opacity="1" stroke="none"/>
<path d="M34.1336 65.6772C47.3029 95.2898 61.5513 130.151 70.0555 154.139C66.2297 154.783 62.5497 155.41 59.0207 156.009C51.1055 131.285 40.1488 96.8978 28.0556 67.0768C30.1276 66.5686 32.1997 66.0826 34.1336 65.6772Z" fill="#781619" fill-rule="nonzero" opacity="1" stroke="none"/>
<path d="M28.0557 67.0768C40.149 96.8978 51.1056 131.285 59.0208 156.009C55.4894 156.609 52.1091 157.183 48.8798 157.724C42.2624 131.377 31.6968 98.8941 21.9703 68.6146C23.9118 68.1168 25.9839 67.5863 28.0557 67.0768Z" fill="#82171b" fill-rule="nonzero" opacity="1" stroke="none"/>
<path d="M21.9701 68.6145C31.6966 98.894 42.2622 131.377 48.8796 157.724C45.6506 158.263 42.5726 158.772 39.6535 159.238C34.3315 131.27 24.0395 100.685 16.6818 69.9476C18.2222 69.5761 20.0309 69.1122 21.9701 68.6145Z" fill="#951a1f" fill-rule="nonzero" opacity="1" stroke="none"/>
<path d="M16.6819 69.9476C24.0396 100.685 34.3317 131.27 39.6536 159.238C36.7347 159.705 33.9693 160.131 31.3658 160.51C26.6353 131.805 19.2752 101.68 12.9968 70.7347C13.8674 70.6012 15.1417 70.3204 16.6819 69.9476Z" fill="#a81c22" fill-rule="nonzero" opacity="1" stroke="none"/>
<path d="M12.9966 70.7347C9.41559 71.2808 8.08118 71.7603 5.23247 72.0601C9.00646 105.94 12.6473 139.002 15.3527 163.467C21.6442 162.301 23.8804 161.616 31.3657 160.51C26.6352 131.805 19.2751 101.68 12.9966 70.7347Z" fill="#b11d23" fill-rule="nonzero" opacity="1" stroke="none"/>
<path d="M5.23252 72.06C1.61759 72.4392 3.16845 72.3442-0.123289 72.8132C-0.123289 109.095-0.123289 147.621-0.123289 166.764C7.42176 165.414 7.91176 164.749 15.3527 163.467C12.6473 139.002 9.00652 105.94 5.23252 72.06Z" fill="#b11d23" fill-rule="nonzero" opacity="1" stroke="none"/>
<path d="M115.984 146.353C109.531 147.488 76.254 153.049 70.0562 154.138C86.2776 200.01 112.679 269.742 127.452 311.486C140.582 309.201 163.277 305.079 171.591 303.608C159.683 269.931 126.524 176.315 115.984 146.353Z" fill="#781619" fill-rule="nonzero" opacity="1" stroke="none"/>
<path d="M70.0559 154.138C86.2774 200.01 112.679 269.742 127.451 311.486C122.179 312.521 116.672 313.565 111.149 314.587C97.1064 271.922 74.8281 204.768 59.0211 156.008C62.5501 155.409 66.2302 154.782 70.0559 154.138Z" fill="#781619" fill-rule="nonzero" opacity="1" stroke="none"/>
<path d="M59.0209 156.008C74.8279 204.768 97.1062 271.922 111.149 314.587C105.624 315.608 100.088 316.61 94.7606 317.56C82.3262 272.871 63.7723 212.834 48.8799 157.723C52.1092 157.182 55.4895 156.608 59.0209 156.008Z" fill="#82171b" fill-rule="nonzero" opacity="1" stroke="none"/>
<path d="M48.8799 157.725C63.7722 212.835 82.3262 272.872 94.7606 317.561C89.4333 318.511 84.3148 319.409 79.6286 320.228C68.8022 273.516 53.6339 220.702 39.6537 159.239C42.5729 158.772 45.6509 158.264 48.8799 157.725Z" fill="#951a1f" fill-rule="nonzero" opacity="1" stroke="none"/>
<path d="M39.6537 159.237C53.6338 220.701 68.8021 273.514 79.6285 320.226C74.9426 321.045 70.689 321.781 67.0898 322.407C56.9957 274.775 44.9313 224.861 31.3659 160.509C33.9693 160.13 36.7348 159.704 39.6537 159.237Z" fill="#a81c22" fill-rule="nonzero" opacity="1" stroke="none"/>
<path d="M31.3657 160.509C23.8804 161.616 21.6442 162.3 15.3527 163.466C19.5721 201.515 32.8408 282.076 37.8707 327.207C51.0246 324.95 54.6734 324.581 67.0896 322.407C56.9955 274.775 44.9311 224.86 31.3657 160.509Z" fill="#b11d23" fill-rule="nonzero" opacity="1" stroke="none"/>
<path d="M15.3527 163.466C7.91174 164.749 7.42174 165.413-0.12331 166.763C-0.12331 203.676-0.12331 298.662-0.12331 333.765C16.6012 330.829 24.605 329.542 37.8707 327.207C32.8408 282.076 19.5721 201.515 15.3527 163.466Z" fill="#b11d23" fill-rule="nonzero" opacity="1" stroke="none"/>
<path d="M171.589 303.608C163.275 305.08 140.58 309.202 127.449 311.487C143.775 357.571 324.055 858.254 339.273 901.123C347.126 899.936 354.009 898.62 380.173 893.444C350.988 810.322 184.868 341.144 171.589 303.608Z" fill="#781619" fill-rule="nonzero" opacity="1" stroke="none"/>
<path d="M127.451 311.487C143.777 357.571 324.058 858.254 339.276 901.123C323.75 903.628 311.216 905.688 300.01 907.557C285.42 862.901 126.758 362.501 111.149 314.588C116.672 313.566 122.179 312.522 127.451 311.487Z" fill="#781619" fill-rule="nonzero" opacity="1" stroke="none"/>
<path d="M111.149 314.587C126.758 362.501 285.42 862.901 300.01 907.557C288.8 909.425 278.92 911.102 268.7 912.844C255.494 864.259 108.793 369.5 94.7609 317.561C100.088 316.611 105.624 315.609 111.149 314.587Z" fill="#82171b" fill-rule="nonzero" opacity="1" stroke="none"/>
<path d="M94.7609 317.561C108.793 369.5 255.494 864.259 268.7 912.844C258.481 914.583 247.921 916.386 235.358 918.503C223.537 865.989 92.087 376.193 79.6289 320.227C84.3151 319.409 89.4336 318.511 94.7609 317.561Z" fill="#951a1f" fill-rule="nonzero" opacity="1" stroke="none"/>
<path d="M79.6288 320.227C92.0869 376.193 223.536 865.99 235.358 918.503C222.796 920.622 208.23 923.055 189.994 926.057C178.8 871.758 78.8314 380.203 67.0901 322.408C70.6893 321.782 74.9429 321.046 79.6288 320.227Z" fill="#a81c22" fill-rule="nonzero" opacity="1" stroke="none"/>
<path d="M67.09 322.408C54.6738 324.582 51.025 324.951 37.8711 327.208C42.1586 366.198 104.196 892.081 109.345 938.565C131.251 934.682 161.346 930.974 189.994 926.057C178.8 871.758 78.8312 380.203 67.09 322.408Z" fill="#b11d23" fill-rule="nonzero" opacity="1" stroke="none"/>
<path d="M37.871 327.208C24.6053 329.544 16.6015 330.83-0.123044 333.766C-0.123044 401.513-0.123044 923.696-0.123044 960.206C37.4279 953.655 81.6825 943.327 109.345 938.565C104.195 892.081 42.1584 366.198 37.871 327.208Z" fill="#b11d23" fill-rule="nonzero" opacity="1" stroke="none"/>
<path d="M380.175 893.444C354.01 898.62 347.127 899.936 339.275 901.123C356.757 950.522 453.849 1221.19 471.261 1270.22C471.261 1220.42 471.261 1201.97 471.261 1150.88C456.838 1110.1 395.802 937.029 380.175 893.444Z" fill="#781619" fill-rule="nonzero" opacity="1" stroke="none"/>
<path d="M339.274 901.123C356.757 950.522 453.848 1221.19 471.261 1270.22C471.261 1299.81 471.261 1335.42 471.261 1376.95C425.643 1251.23 318.083 963.29 300.008 907.557C311.215 905.688 323.749 903.628 339.274 901.123Z" fill="#781619" fill-rule="nonzero" opacity="1" stroke="none"/>
<path d="M300.008 907.557C318.082 963.29 425.643 1251.23 471.261 1376.95C471.261 1418.49 471.261 1465.96 471.261 1519.26C363.596 1224.8 288.079 982.512 268.699 912.844C278.918 911.102 288.798 909.425 300.008 907.557Z" fill="#82171b" fill-rule="nonzero" opacity="1" stroke="none"/>
<path d="M268.699 912.843C288.079 982.511 363.596 1224.8 471.26 1519.26C471.26 1572.56 471.26 1631.69 471.26 1696.57C301.546 1233.38 256.043 1002.11 235.357 918.503C247.919 916.385 258.48 914.583 268.699 912.843Z" fill="#951a1f" fill-rule="nonzero" opacity="1" stroke="none"/>
<path d="M235.357 918.503C256.043 1002.11 301.546 1233.38 471.26 1696.57C471.26 1761.44 471.26 1832.06 471.26 1908.33C273.341 1368.45 211.27 1015.99 189.992 926.057C208.228 923.055 222.794 920.622 235.357 918.503Z" fill="#a81c22" fill-rule="nonzero" opacity="1" stroke="none"/>
<path d="M189.992 926.057C161.344 930.974 131.249 934.681 109.343 938.565C124.614 983.243 199.875 1817.03 471.26 2360.07C471.26 2323.51 471.26 1961.17 471.26 1908.33C273.34 1368.45 211.269 1015.99 189.992 926.057Z" fill="#b11d23" fill-rule="nonzero" opacity="1" stroke="none"/>
<path d="M109.346 938.565C81.6829 943.327 37.4283 953.655-0.122642 960.206C-0.122642 995.758-0.122642 2362.31-0.122642 2399.97C187.13 2377.48 280.775 2368.73 471.262 2360.07C199.877 1817.03 124.616 983.243 109.346 938.565Z" fill="#b11d23" fill-rule="nonzero" opacity="1" stroke="none"/>
</g>
</g>
</g>
<g opacity="1">
<clipPath id="ClipPath_3">
<path d="M1245.02 2369.58C1250.95 2371.95 1307.94 2395.06 1316.12 2398.4C1316.34 2398.48 1316.83 2398.67 1317.41 2398.91C1318.35 2399.28 1317.98 2399.12 1318.43 2399.31C1319.41 2399.71 1319.74 2399.84 1320.09 2399.97C1320.1 2382.07 1320.1 2355.54 1320.11 2327.17C1320.11 2290.87 1320.11 2252.36 1320.11 2233.22C1320.11 2196.31 1320.11 2101.3 1320.11 2066.21C1320.11 1998.47 1320.11 1476.29 1320.11 1439.77C1320.11 1404.22 1320.11 37.6572 1320.11 0.000123792C1283.08 0.000123792 908.441 0.000123792 848.718 0.000123792C848.718 36.5364 848.718 438.783 848.718 491.652C848.718 796.7 848.718 1011.4 848.718 1129.75C848.718 1179.55 848.718 1198.01 848.718 1249.1C863.143 1289.88 924.18 1462.94 939.806 1506.53C968.992 1589.66 1135.11 2058.84 1148.39 2096.37C1160.3 2130.05 1193.46 2223.67 1204 2253.61C1210.16 2270.96 1226.25 2316.33 1234.8 2340.51C1241.48 2359.43 1240.88 2357.89 1245.02 2369.58Z"/>
</clipPath>
<g clip-path="url(#ClipPath_3)">
<clipPath id="ClipPath_4">
<path d="M1245.02 2369.58C1250.95 2371.95 1307.94 2395.06 1316.12 2398.4C1316.34 2398.48 1316.83 2398.67 1317.41 2398.91C1318.35 2399.28 1317.98 2399.12 1318.43 2399.31C1319.41 2399.71 1319.74 2399.84 1320.09 2399.97C1320.1 2382.07 1320.1 2355.54 1320.11 2327.17C1320.11 2290.87 1320.11 2252.36 1320.11 2233.22C1320.11 2196.31 1320.11 2101.3 1320.11 2066.21C1320.11 1998.47 1320.11 1476.29 1320.11 1439.77C1320.11 1404.22 1320.11 37.6572 1320.11 0.000123792C1283.08 0.000123792 908.441 0.000123792 848.718 0.000123792C848.718 36.5364 848.718 438.783 848.718 491.652C848.718 796.7 848.718 1011.4 848.718 1129.75C848.718 1179.55 848.718 1198.01 848.718 1249.1C863.143 1289.88 924.18 1462.94 939.806 1506.53C968.992 1589.66 1135.11 2058.84 1148.39 2096.37C1160.3 2130.05 1193.46 2223.67 1204 2253.61C1210.16 2270.96 1226.25 2316.33 1234.8 2340.51C1241.48 2359.43 1240.88 2357.89 1245.02 2369.58"/>
</clipPath>
<g clip-path="url(#ClipPath_4)">
<path d="M1245.02 2369.57C1250.95 2371.96 1307.94 2395.06 1316.12 2398.39C1304.54 2374.66 1296.43 2358.08 1285.85 2334.3C1276.74 2336.21 1240.94 2341.46 1234.79 2340.51C1241.48 2359.43 1240.88 2357.87 1245.02 2369.57Z" fill="#781619" fill-rule="nonzero" opacity="1" stroke="none"/>
<path d="M1316.12 2398.39C1310.33 2386.53 1305.41 2376.45 1300.61 2366.37C1301.6 2366.18 1302.75 2366.11 1303.94 2366.12C1307.58 2376.67 1311.29 2387.07 1316.33 2398.47C1316.25 2398.44 1316.18 2398.41 1316.12 2398.39L1316.12 2398.39Z" fill="#781619" fill-rule="nonzero" opacity="1" stroke="none"/>
<path d="M1316.33 2398.47C1311.29 2387.07 1307.58 2376.67 1303.94 2366.12C1305.13 2366.12 1306.37 2366.21 1307.54 2366.31C1310.42 2377.47 1313.23 2388.2 1316.63 2398.59C1316.52 2398.55 1316.42 2398.51 1316.33 2398.47L1316.33 2398.47Z" fill="#781619" fill-rule="nonzero" opacity="1" stroke="none"/>
<path d="M1300.61 2366.36C1295.81 2356.28 1291.14 2346.19 1285.85 2334.3C1287.78 2333.9 1289.86 2333.41 1291.93 2332.9C1296.72 2344.88 1300.3 2355.57 1303.94 2366.12C1302.75 2366.12 1301.6 2366.18 1300.61 2366.37L1300.61 2366.36Z" fill="#781619" fill-rule="nonzero" opacity="1" stroke="none"/>
<path d="M1303.94 2366.12C1300.3 2355.57 1296.72 2344.88 1291.93 2332.9C1294 2332.39 1296.07 2331.86 1298.01 2331.36C1301.71 2343.54 1304.66 2355.15 1307.54 2366.31C1306.37 2366.21 1305.13 2366.13 1303.94 2366.12L1303.94 2366.12Z" fill="#7f171b" fill-rule="nonzero" opacity="1" stroke="none"/>
<path d="M1316.63 2398.59C1316.74 2398.64 1316.86 2398.69 1316.99 2398.74C1316.11 2394.05 1315.14 2388.95 1314.1 2383.56C1313.45 2383.33 1312.68 2383.03 1311.89 2382.74C1313.37 2388.12 1314.93 2393.4 1316.63 2398.59L1316.63 2398.59Z" fill="#781619" fill-rule="nonzero" opacity="1" stroke="none"/>
<path d="M1311.89 2382.74C1312.68 2383.03 1313.45 2383.33 1314.1 2383.56C1313.06 2378.17 1311.94 2372.49 1310.78 2366.62C1309.83 2366.53 1308.72 2366.41 1307.54 2366.31C1308.98 2371.9 1310.4 2377.37 1311.89 2382.74Z" fill="#85181c" fill-rule="nonzero" opacity="1" stroke="none"/>
<path d="M1316.99 2398.74C1317.12 2398.8 1317.26 2398.85 1317.4 2398.91C1316.9 2394.44 1316.25 2389.41 1315.51 2383.99C1315.25 2383.96 1314.74 2383.79 1314.1 2383.56C1315.14 2388.95 1316.11 2394.04 1316.99 2398.74L1316.99 2398.74Z" fill="#781619" fill-rule="nonzero" opacity="1" stroke="none"/>
<path d="M1314.1 2383.56C1314.74 2383.79 1315.25 2383.96 1315.51 2383.99C1314.77 2378.57 1313.93 2372.75 1313.01 2366.72C1312.51 2366.76 1311.72 2366.69 1310.78 2366.62C1311.94 2372.49 1313.06 2378.17 1314.1 2383.56L1314.1 2383.56Z" fill="#8d191d" fill-rule="nonzero" opacity="1" stroke="none"/>
<path d="M1307.54 2366.31C1308.72 2366.41 1309.83 2366.53 1310.78 2366.62C1309.61 2360.75 1308.4 2354.69 1307.14 2348.56C1305.95 2348.74 1304.57 2348.96 1303.08 2349.21C1304.65 2355.03 1306.1 2360.73 1307.54 2366.31Z" fill="#8e191e" fill-rule="nonzero" opacity="1" stroke="none"/>
<path d="M1303.08 2349.21C1304.57 2348.96 1305.95 2348.74 1307.14 2348.56C1305.89 2342.42 1304.6 2336.21 1303.3 2330.03C1301.76 2330.4 1299.95 2330.86 1298.01 2331.36C1299.86 2337.45 1301.53 2343.39 1303.08 2349.21Z" fill="#931a1e" fill-rule="nonzero" opacity="1" stroke="none"/>
<path d="M1310.78 2366.62C1311.72 2366.7 1312.51 2366.75 1313.01 2366.72C1312.11 2360.68 1311.13 2354.43 1310.11 2348.12C1309.35 2348.23 1308.34 2348.37 1307.14 2348.56C1308.4 2354.69 1309.61 2360.75 1310.78 2366.61L1310.78 2366.62Z" fill="#9c1b20" fill-rule="nonzero" opacity="1" stroke="none"/>
<path d="M1307.14 2348.56C1308.34 2348.37 1309.35 2348.23 1310.11 2348.12C1309.09 2341.82 1308.04 2335.47 1306.99 2329.24C1306.12 2329.38 1304.84 2329.66 1303.3 2330.03C1304.6 2336.21 1305.89 2342.42 1307.14 2348.56Z" fill="#a41c21" fill-rule="nonzero" opacity="1" stroke="none"/>
<path d="M1317.4 2398.91C1318.35 2399.28 1317.97 2399.13 1318.43 2399.31C1317.96 2395.21 1317.69 2390.35 1317.48 2384.96C1316.66 2384.85 1316.87 2384.22 1315.51 2383.99C1316.25 2389.41 1316.9 2394.44 1317.4 2398.91Z" fill="#781619" fill-rule="nonzero" opacity="1" stroke="none"/>
<path d="M1315.51 2383.99C1316.87 2384.22 1316.66 2384.85 1317.48 2384.96C1317.28 2379.56 1317.16 2373.64 1317 2367.39C1315.34 2367.45 1315.28 2366.63 1313.01 2366.72C1313.93 2372.75 1314.77 2378.57 1315.51 2383.99Z" fill="#92191e" fill-rule="nonzero" opacity="1" stroke="none"/>
<path d="M1313.01 2366.72C1315.28 2366.63 1315.34 2367.45 1317 2367.39C1316.84 2361.15 1316.64 2354.59 1316.31 2347.94C1313.83 2348.17 1313.28 2347.72 1310.11 2348.12C1311.13 2354.42 1312.11 2360.68 1313.01 2366.72L1313.01 2366.72Z" fill="#a21c21" fill-rule="nonzero" opacity="1" stroke="none"/>
<path d="M1310.11 2348.12C1313.28 2347.72 1313.83 2348.17 1316.31 2347.94C1315.97 2341.29 1315.49 2334.54 1314.75 2327.92C1311.9 2328.22 1310.57 2328.7 1306.99 2329.24C1308.04 2335.47 1309.09 2341.82 1310.11 2348.12L1310.11 2348.12Z" fill="#ad1d23" fill-rule="nonzero" opacity="1" stroke="none"/>
<path d="M1318.43 2399.31C1319.41 2399.7 1319.74 2399.84 1320.09 2399.98C1320.09 2395.5 1320.09 2390.49 1320.09 2385.04C1319.28 2384.99 1318.87 2385.23 1317.48 2384.96C1317.68 2390.35 1317.96 2395.21 1318.43 2399.31L1318.43 2399.31Z" fill="#781619" fill-rule="nonzero" opacity="1" stroke="none"/>
<path d="M1317.48 2384.95C1318.88 2385.23 1319.28 2384.99 1320.09 2385.03C1320.1 2379.58 1320.1 2373.7 1320.09 2367.49C1318.27 2367.65 1319.29 2367.4 1316.99 2367.39C1317.15 2373.63 1317.28 2379.56 1317.48 2384.95L1317.48 2384.95Z" fill="#92191e" fill-rule="nonzero" opacity="1" stroke="none"/>
<path d="M1317 2367.39C1319.3 2367.39 1318.28 2367.66 1320.1 2367.49C1320.1 2361.28 1320.1 2354.75 1320.1 2347.99C1317.27 2348.36 1319.51 2347.68 1316.3 2347.94C1316.64 2354.59 1316.83 2361.15 1316.99 2367.39L1317 2367.39Z" fill="#a21c21" fill-rule="nonzero" opacity="1" stroke="none"/>
<path d="M1316.31 2347.94C1319.51 2347.68 1317.27 2348.36 1320.1 2347.99C1320.1 2341.24 1320.1 2334.26 1320.1 2327.16C1316.81 2327.63 1318.36 2327.54 1314.75 2327.92C1315.49 2334.54 1315.97 2341.29 1316.31 2347.94L1316.31 2347.94Z" fill="#ad1d23" fill-rule="nonzero" opacity="1" stroke="none"/>
<path d="M1234.79 2340.51C1240.94 2341.46 1276.74 2336.21 1285.85 2334.3C1272.68 2304.69 1258.43 2269.82 1249.93 2245.84C1243.73 2246.93 1210.45 2252.49 1204 2253.62C1210.16 2270.95 1226.25 2316.32 1234.79 2340.51Z" fill="#781619" fill-rule="nonzero" opacity="1" stroke="none"/>
<path d="M1285.85 2334.3C1272.68 2304.69 1258.43 2269.83 1249.93 2245.84C1253.75 2245.19 1257.43 2244.57 1260.96 2243.97C1268.88 2268.69 1279.83 2303.08 1291.93 2332.9C1289.86 2333.41 1287.78 2333.9 1285.85 2334.3Z" fill="#781619" fill-rule="nonzero" opacity="1" stroke="none"/>
<path d="M1291.93 2332.9C1279.83 2303.08 1268.88 2268.69 1260.96 2243.97C1264.49 2243.37 1267.87 2242.79 1271.1 2242.25C1277.72 2268.6 1288.29 2301.08 1298.01 2331.36C1296.07 2331.86 1294 2332.39 1291.93 2332.9Z" fill="#82171b" fill-rule="nonzero" opacity="1" stroke="none"/>
<path d="M1298.01 2331.36C1288.29 2301.08 1277.72 2268.6 1271.1 2242.25C1274.33 2241.71 1277.41 2241.21 1280.33 2240.74C1285.65 2268.71 1295.94 2299.29 1303.3 2330.03C1301.76 2330.4 1299.95 2330.86 1298.01 2331.36Z" fill="#951a1f" fill-rule="nonzero" opacity="1" stroke="none"/>
<path d="M1303.3 2330.03C1295.94 2299.29 1285.65 2268.71 1280.33 2240.74C1283.25 2240.27 1286.01 2239.84 1288.62 2239.47C1293.35 2268.17 1300.71 2298.3 1306.99 2329.24C1306.12 2329.38 1304.84 2329.66 1303.3 2330.03Z" fill="#a81c22" fill-rule="nonzero" opacity="1" stroke="none"/>
<path d="M1306.99 2329.24C1310.57 2328.7 1311.9 2328.22 1314.75 2327.92C1310.98 2294.04 1307.34 2260.97 1304.63 2236.51C1298.34 2237.68 1296.1 2238.36 1288.62 2239.47C1293.35 2268.17 1300.71 2298.3 1306.99 2329.24Z" fill="#b11d23" fill-rule="nonzero" opacity="1" stroke="none"/>
<path d="M1314.75 2327.92C1318.37 2327.54 1316.81 2327.63 1320.11 2327.16C1320.11 2290.88 1320.11 2252.36 1320.11 2233.21C1312.56 2234.56 1312.07 2235.23 1304.63 2236.51C1307.34 2260.97 1310.98 2294.04 1314.75 2327.92Z" fill="#b11d23" fill-rule="nonzero" opacity="1" stroke="none"/>
<path d="M1204 2253.62C1210.45 2252.49 1243.73 2246.93 1249.93 2245.84C1233.71 2199.97 1207.3 2130.23 1192.53 2088.49C1179.4 2090.77 1156.71 2094.89 1148.39 2096.37C1160.3 2130.04 1193.46 2223.66 1204 2253.62Z" fill="#781619" fill-rule="nonzero" opacity="1" stroke="none"/>
<path d="M1249.93 2245.84C1233.71 2199.97 1207.3 2130.23 1192.53 2088.49C1197.8 2087.45 1203.31 2086.41 1208.83 2085.39C1222.88 2128.05 1245.15 2195.21 1260.96 2243.97C1257.43 2244.57 1253.75 2245.19 1249.93 2245.84Z" fill="#781619" fill-rule="nonzero" opacity="1" stroke="none"/>
<path d="M1260.96 2243.97C1245.15 2195.21 1222.88 2128.05 1208.83 2085.39C1214.36 2084.36 1219.89 2083.36 1225.22 2082.41C1237.66 2127.1 1256.21 2187.14 1271.1 2242.25C1267.87 2242.79 1264.49 2243.37 1260.96 2243.97Z" fill="#82171b" fill-rule="nonzero" opacity="1" stroke="none"/>
<path d="M1271.1 2242.25C1256.21 2187.14 1237.66 2127.1 1225.22 2082.41C1230.55 2081.46 1235.67 2080.57 1240.35 2079.75C1251.18 2126.46 1266.35 2179.28 1280.33 2240.74C1277.41 2241.21 1274.33 2241.71 1271.1 2242.25Z" fill="#951a1f" fill-rule="nonzero" opacity="1" stroke="none"/>
<path d="M1280.33 2240.74C1266.35 2179.28 1251.18 2126.46 1240.35 2079.75C1245.04 2078.93 1249.29 2078.19 1252.89 2077.57C1262.99 2125.2 1275.05 2175.12 1288.62 2239.47C1286.01 2239.85 1283.25 2240.27 1280.33 2240.74Z" fill="#a81c22" fill-rule="nonzero" opacity="1" stroke="none"/>
<path d="M1288.62 2239.47C1296.1 2238.36 1298.34 2237.68 1304.63 2236.51C1300.41 2198.46 1287.14 2117.9 1282.11 2072.77C1268.96 2075.02 1265.31 2075.39 1252.89 2077.57C1262.99 2125.2 1275.05 2175.12 1288.62 2239.47Z" fill="#b11d23" fill-rule="nonzero" opacity="1" stroke="none"/>
<path d="M1304.63 2236.51C1312.07 2235.23 1312.56 2234.56 1320.11 2233.21C1320.11 2196.3 1320.11 2101.31 1320.11 2066.21C1303.38 2069.15 1295.38 2070.43 1282.11 2072.77C1287.14 2117.9 1300.41 2198.46 1304.63 2236.51Z" fill="#b11d23" fill-rule="nonzero" opacity="1" stroke="none"/>
<path d="M1148.39 2096.37C1156.7 2094.89 1179.4 2090.77 1192.53 2088.49C1176.2 2042.4 995.92 1541.72 980.702 1498.84C972.849 1500.03 965.966 1501.35 939.802 1506.53C968.987 1589.65 1135.11 2058.83 1148.39 2096.37Z" fill="#781619" fill-rule="nonzero" opacity="1" stroke="none"/>
<path d="M1192.53 2088.49C1176.21 2042.4 995.923 1541.72 980.704 1498.84C996.23 1496.34 1008.76 1494.28 1019.97 1492.41C1034.56 1537.07 1193.22 2037.48 1208.83 2085.39C1203.31 2086.41 1197.8 2087.45 1192.53 2088.49Z" fill="#781619" fill-rule="nonzero" opacity="1" stroke="none"/>
<path d="M1208.83 2085.39C1193.22 2037.48 1034.56 1537.07 1019.97 1492.41C1031.18 1490.54 1041.06 1488.86 1051.28 1487.12C1064.49 1535.71 1211.19 2030.47 1225.22 2082.42C1219.89 2083.36 1214.36 2084.37 1208.83 2085.39Z" fill="#82171b" fill-rule="nonzero" opacity="1" stroke="none"/>
<path d="M1225.22 2082.42C1211.19 2030.47 1064.49 1535.71 1051.28 1487.12C1061.5 1485.39 1072.06 1483.58 1084.62 1481.47C1096.44 1533.98 1227.9 2023.78 1240.35 2079.75C1235.67 2080.57 1230.55 2081.46 1225.22 2082.42Z" fill="#951a1f" fill-rule="nonzero" opacity="1" stroke="none"/>
<path d="M1240.35 2079.75C1227.9 2023.78 1096.44 1533.98 1084.62 1481.47C1097.18 1479.35 1111.75 1476.91 1129.99 1473.91C1141.18 1528.21 1241.15 2019.77 1252.89 2077.57C1249.29 2078.19 1245.04 2078.93 1240.35 2079.75Z" fill="#a81c22" fill-rule="nonzero" opacity="1" stroke="none"/>
<path d="M1252.89 2077.57C1265.31 2075.39 1268.96 2075.02 1282.11 2072.77C1277.82 2033.78 1215.79 1507.89 1210.64 1461.4C1188.73 1465.29 1158.64 1468.99 1129.99 1473.91C1141.18 1528.21 1241.15 2019.77 1252.89 2077.57Z" fill="#b11d23" fill-rule="nonzero" opacity="1" stroke="none"/>
<path d="M1282.11 2072.77C1295.38 2070.43 1303.38 2069.15 1320.11 2066.21C1320.11 1998.46 1320.11 1476.27 1320.11 1439.76C1282.55 1446.31 1238.3 1456.64 1210.64 1461.4C1215.79 1507.89 1277.82 2033.78 1282.11 2072.77Z" fill="#b11d23" fill-rule="nonzero" opacity="1" stroke="none"/>
<path d="M939.803 1506.52C965.968 1501.35 972.851 1500.03 980.704 1498.84C963.221 1449.44 866.128 1178.77 848.716 1129.74C848.716 1179.54 848.716 1198 848.716 1249.09C863.139 1289.87 924.176 1462.94 939.803 1506.52Z" fill="#781619" fill-rule="nonzero" opacity="1" stroke="none"/>
<path d="M980.703 1498.84C963.22 1449.44 866.128 1178.77 848.715 1129.74C848.715 1100.15 848.715 1064.54 848.715 1023.01C894.333 1148.74 1001.9 1436.68 1019.97 1492.41C1008.76 1494.28 996.229 1496.34 980.703 1498.84Z" fill="#781619" fill-rule="nonzero" opacity="1" stroke="none"/>
<path d="M1019.97 1492.41C1001.89 1436.68 894.333 1148.74 848.715 1023.01C848.715 981.468 848.715 934.003 848.715 880.702C956.381 1175.16 1031.9 1417.45 1051.28 1487.12C1041.06 1488.86 1031.18 1490.54 1019.97 1492.41Z" fill="#82171b" fill-rule="nonzero" opacity="1" stroke="none"/>
<path d="M1051.28 1487.12C1031.9 1417.45 956.381 1175.16 848.715 880.702C848.715 827.401 848.715 768.265 848.715 703.388C1018.43 1166.58 1063.93 1397.86 1084.62 1481.46C1072.06 1483.58 1061.5 1485.38 1051.28 1487.12Z" fill="#951a1f" fill-rule="nonzero" opacity="1" stroke="none"/>
<path d="M1084.62 1481.46C1063.93 1397.86 1018.43 1166.58 848.714 703.388C848.714 638.511 848.714 567.893 848.714 491.628C1046.64 1031.51 1108.71 1383.97 1129.99 1473.91C1111.75 1476.91 1097.18 1479.35 1084.62 1481.46Z" fill="#a81c22" fill-rule="nonzero" opacity="1" stroke="none"/>
<path d="M1129.99 1473.91C1158.63 1468.99 1188.73 1465.29 1210.64 1461.4C1195.36 1416.72 1120.1 543.016 848.714-0.0272059C848.714 36.5302 848.714 438.779 848.714 491.628C1046.64 1031.51 1108.71 1383.97 1129.99 1473.91Z" fill="#b11d23" fill-rule="nonzero" opacity="1" stroke="none"/>
<path d="M1210.64 1461.4C1238.3 1456.64 1282.56 1446.31 1320.11 1439.76C1320.11 1404.21 1320.11 37.635 1320.11-0.026072C1283.08-0.0274064 908.44-0.0274064 848.716-0.0274064C1120.1 543.016 1195.37 1416.72 1210.64 1461.4Z" fill="#b11d23" fill-rule="nonzero" opacity="1" stroke="none"/>
</g>
</g>
</g>
<path d="M471.279-2.27374e-13L-0.105989-2.27374e-13L834.603 2360.07C1069.17 2366 1320.1 2400 1320.1 2400L471.279-2.27374e-13" fill="#e61d25" fill-rule="nonzero" opacity="1" stroke="none"/>
</g>
</g>
</svg>
